<svg width="18" height="18" viewBox="0 0 18 18" fill="none" xmlns="http://www.w3.org/2000/svg">
<path fill-rule="evenodd" clip-rule="evenodd" d="M14.6823 13.1343V10.4635C14.6823 10.0999 14.977 9.80516 15.3406 9.80516C15.7042 9.80516 15.999 10.0999 15.999 10.4635V13.1343C15.999 14.717 14.716 16 13.1334 16L4.86555 16C3.28295 16 2 14.717 2 13.1343L2 4.86593C2 3.28324 3.28296 2.00021 4.86556 2.00021L7.53615 2.00022C7.89975 2.00022 8.1945 2.29499 8.1945 2.65861C8.1945 3.02222 7.89974 3.31699 7.53615 3.31699L4.86556 3.31698C4.01014 3.31698 3.31669 4.01047 3.31669 4.86593L3.31669 13.1343C3.31669 13.9897 4.01014 14.6832 4.86555 14.6832H13.1334C13.9888 14.6832 14.6823 13.9897 14.6823 13.1343Z" fill="#0D5FFF"/>
<path fill-rule="evenodd" clip-rule="evenodd" d="M15.8072 2.19301C16.0643 2.45013 16.0643 2.867 15.8072 3.12411L8.49047 10.4412C8.23337 10.6984 7.81653 10.6984 7.55943 10.4412C7.30233 10.1841 7.30233 9.76726 7.55943 9.51014L14.8761 2.19301C15.1332 1.9359 15.5501 1.9359 15.8072 2.19301Z" fill="#0D5FFF"/>
<path fill-rule="evenodd" clip-rule="evenodd" d="M15.3427 2.00715C15.7059 2.00781 15.9999 2.30238 15.9999 2.66553L15.9999 6.56081C15.9999 6.92442 15.7051 7.21919 15.3415 7.21919C14.9779 7.21919 14.6832 6.92443 14.6832 6.56081L14.6832 3.32271L11.4381 3.31677C11.0745 3.3161 10.7803 3.02079 10.7809 2.65718C10.7816 2.29356 11.0769 1.99934 11.4405 2L15.3427 2.00715Z" fill="#0D5FFF"/>
</svg>
