<svg width="30" height="30" viewBox="0 0 30 30" fill="none" xmlns="http://www.w3.org/2000/svg">
<path d="M11.0037 27.1047C11.3978 26.9351 11.6739 26.5432 11.6739 26.087V23.0935C11.6739 22.9843 11.6828 22.8706 11.6966 22.7553C11.6889 22.7575 11.6817 22.7592 11.6739 22.7609C11.6739 22.7609 10.0109 22.7609 9.67826 22.7609C8.84674 22.7609 8.12609 22.4283 7.79348 21.763C7.40543 21.0424 7.23913 19.8228 6.2413 19.1576C6.075 19.0467 6.18587 18.8804 6.51848 18.8804C6.85109 18.9359 7.57174 19.3793 8.01522 19.9891C8.51413 20.5989 9.01304 21.0978 9.9 21.0978C11.2787 21.0978 12.0176 21.0285 12.4622 20.7902C12.98 20.0202 13.6967 19.4348 14.4457 19.4348V19.4209C11.3036 19.32 9.29631 18.2756 8.36168 16.663C6.33 16.6863 4.56108 16.8876 3.55161 17.055C3.51946 16.8737 3.49174 16.6913 3.4679 16.5078C4.46407 16.3437 6.15261 16.1492 8.09393 16.112C8.03185 15.959 7.97808 15.8021 7.93262 15.6414C5.9863 15.5427 4.30663 15.6198 3.39417 15.6952C3.38309 15.5111 3.36812 15.3276 3.3659 15.1414C4.28002 15.0665 5.91424 14.9917 7.81066 15.0798C7.76687 14.8027 7.7386 14.5194 7.7386 14.2245C7.7386 13.2821 8.07121 12.2843 8.68099 11.4527C8.40381 10.5103 8.01577 8.51469 8.79186 7.79403C10.2886 7.79403 11.3419 8.51469 11.8408 8.95816C12.7826 8.56957 13.8359 8.34783 15 8.34783C16.1641 8.34783 17.2174 8.56957 18.1043 8.95761C18.6033 8.51413 19.6565 7.79348 21.1533 7.79348C21.9848 8.56957 21.5413 10.5652 21.2641 11.4522C21.8739 12.2837 22.2065 13.2261 22.1511 14.2239C22.1511 14.4922 22.1261 14.7511 22.0901 15.005C24.0298 14.9096 25.7083 14.9861 26.638 15.0615C26.6369 15.2483 26.6197 15.4307 26.6097 15.6153C25.6834 15.5388 23.9627 15.4601 21.9759 15.566C21.9266 15.7523 21.8667 15.9335 21.7957 16.1093C23.7615 16.1348 25.4905 16.3249 26.5343 16.4912C26.5105 16.6752 26.4828 16.8576 26.4506 17.0383C25.3907 16.8687 23.5841 16.6703 21.5286 16.6603C20.6056 18.2557 18.6349 19.2962 15.5543 19.4176V19.4348C16.9957 19.4348 18.3261 21.5967 18.3261 23.0935V26.087C18.3261 26.5432 18.6022 26.9351 18.9963 27.1047C24.0747 25.424 27.75 20.6344 27.75 15C27.75 7.96976 22.0308 2.25 15 2.25C7.96921 2.25 2.25 7.96976 2.25 15C2.25 20.6344 5.92533 25.424 11.0037 27.1047Z" fill="#355DEB"/>
</svg>
