<svg width="30" height="30" viewBox="0 0 30 30" fill="none" xmlns="http://www.w3.org/2000/svg">
<path d="M24.7143 2.25H5.28571C3.61 2.25 2.25 3.61 2.25 5.28571V24.7143C2.25 26.39 3.61 27.75 5.28571 27.75H24.7143C26.39 27.75 27.75 26.39 27.75 24.7143V5.28571C27.75 3.61 26.39 2.25 24.7143 2.25ZM10.1429 11.9643V23.5H6.5V11.9643H10.1429ZM6.5 8.60679C6.5 7.75679 7.22857 7.10714 8.32143 7.10714C9.41429 7.10714 10.1004 7.75679 10.1429 8.60679C10.1429 9.45679 9.46286 10.1429 8.32143 10.1429C7.22857 10.1429 6.5 9.45679 6.5 8.60679ZM23.5 23.5H19.8571C19.8571 23.5 19.8571 17.8779 19.8571 17.4286C19.8571 16.2143 19.25 15 17.7321 14.9757H17.6836C16.2143 14.9757 15.6071 16.2264 15.6071 17.4286C15.6071 17.9811 15.6071 23.5 15.6071 23.5H11.9643V11.9643H15.6071V13.5186C15.6071 13.5186 16.7789 11.9643 19.1346 11.9643C21.545 11.9643 23.5 13.6218 23.5 16.9793V23.5Z" fill="#355DEB"/>
</svg>
