<svg width="59" height="27" viewBox="0 0 59 27" fill="none" xmlns="http://www.w3.org/2000/svg">
<path d="M11.2157 5L0.215698 11.2664V15.7026L11.2157 9.40511V5Z" fill="#355DEB"/>
<path d="M11.2157 22L0.215698 15.7336V11.2974L11.2157 17.5949V22Z" fill="#355DEB"/>
<path d="M47.5492 22L58.5492 15.7336V11.2974L47.5492 17.5949V22Z" fill="#355DEB"/>
<path d="M47.5492 5L58.5492 11.2664V15.7026L47.5492 9.40511V5Z" fill="#355DEB"/>
<path fill-rule="evenodd" clip-rule="evenodd" d="M19.254 17.0857H24.5158C24.3961 17.0392 24.277 16.9916 24.1586 16.9428C23.2949 16.5869 22.507 16.1325 21.7996 15.5775L21.7914 15.5711L21.7834 15.5645C21.0378 14.9542 20.4483 14.2042 20.0169 13.3256L20.012 13.3157C19.5635 12.3762 19.3593 11.2959 19.3593 10.1067C19.3593 8.67355 19.662 7.38782 20.3189 6.29617C20.9508 5.24621 21.8111 4.39821 22.8833 3.75694L22.892 3.75182C23.9502 3.13332 25.1288 2.68856 26.4189 2.41014L26.4225 2.40937C27.7143 2.13559 29.0577 2 30.451 2C31.8661 2 33.204 2.14635 34.4608 2.44469C35.7488 2.72368 36.9093 3.1699 37.9297 3.79464C38.9711 4.43234 39.8074 5.25437 40.418 6.26085C41.0471 7.29799 41.3549 8.50015 41.3793 9.82993L41.3795 9.83912V11.236H35.691C36.1978 11.3757 36.6937 11.5388 37.1786 11.7254C38.0476 12.0596 38.8402 12.5041 39.5514 13.0606C40.3002 13.6245 40.8952 14.3307 41.3317 15.1687C41.7945 16.0573 42 17.0979 42 18.2472C42 20.2336 41.5264 21.949 40.4923 23.3068C39.5119 24.6226 38.1662 25.5703 36.5038 26.1661L36.496 26.1688C34.8901 26.7295 33.0881 27 31.1042 27C29.5099 27 28.0058 26.8781 26.5939 26.6307C25.1787 26.4006 23.8991 25.9943 22.7677 25.399L22.7564 25.3931L22.7453 25.3869C21.5948 24.7437 20.6728 23.858 19.9942 22.7392L19.9874 22.728L19.9809 22.7167C19.3062 21.5359 19 20.1141 19 18.5054V18.3441C19 18.1728 19.0218 18.0043 19.0631 17.8406L19.254 17.0857ZM32.606 19.5319L32.6033 19.5407C32.5796 19.562 32.5359 19.5935 32.4578 19.6287L32.441 19.6362L32.4245 19.6444C32.2951 19.7084 32.1303 19.7683 31.923 19.8175C31.714 19.8509 31.4834 19.8774 31.2311 19.8961H30.451C29.8146 19.8961 29.2547 19.8476 28.7669 19.7565C28.3917 19.6641 28.1705 19.5178 28.032 19.3613C27.944 19.2617 27.8258 19.0374 27.8258 18.5372V18.3441C27.8258 18.3441 27.8258 18.3393 27.828 18.3307L27.8988 18.0507C28.3588 18.1486 28.8091 18.24 29.2497 18.3247C30.0137 18.4716 30.696 18.6277 31.2982 18.792C31.8749 18.9493 32.2705 19.1206 32.5247 19.2833C32.5623 19.3073 32.5844 19.3267 32.5966 19.3389C32.6083 19.3507 32.6125 19.3582 32.6125 19.3582C32.6125 19.3582 32.6137 19.3601 32.6148 19.3644C32.616 19.3695 32.619 19.3836 32.619 19.4101C32.619 19.4725 32.6117 19.5111 32.606 19.5319ZM32.619 10.1067V10.5492C32.4477 10.5149 32.2779 10.4816 32.1095 10.4492C31.3455 10.3022 30.6633 10.1462 30.0611 9.9819C29.4949 9.82743 29.112 9.65105 28.868 9.48063C28.7851 9.42281 28.76 9.38294 28.7537 9.3715C28.7504 9.36565 28.7446 9.35482 28.7418 9.3302C28.7481 9.32246 28.7572 9.31217 28.7701 9.29946L28.787 9.28271L28.8031 9.26518C28.8578 9.20566 28.9994 9.09729 29.3249 8.99987C29.6669 8.90408 30.1229 8.84551 30.7123 8.84551C31.3213 8.84551 31.6982 8.94207 31.9162 9.05555L31.9253 9.06033L31.9346 9.06491C32.2319 9.21193 32.3788 9.36743 32.4558 9.50278C32.5681 9.70023 32.619 9.89647 32.619 10.1067Z" fill="#355DEB"/>
<path d="M29.1042 24C27.5583 24 26.1104 23.8816 24.7605 23.6447C23.4323 23.4293 22.2566 23.0524 21.2333 22.514C20.2317 21.9541 19.437 21.1896 18.8491 20.2205C18.283 19.2299 18 17.9916 18 16.5056C18 16.4625 18 16.4087 18 16.3441C18 16.258 18.0109 16.1718 18.0327 16.0857H24.8585C24.8367 16.1718 24.8258 16.258 24.8258 16.3441C24.8258 16.4087 24.8258 16.4733 24.8258 16.5379C24.8258 17.184 24.9782 17.6793 25.283 18.0239C25.5879 18.3684 26.0124 18.6053 26.5568 18.7346C27.1229 18.8422 27.7543 18.8961 28.451 18.8961C28.7123 18.8961 28.9844 18.8961 29.2675 18.8961C29.5723 18.8745 29.8554 18.8422 30.1166 18.7992C30.3997 18.7346 30.6501 18.6484 30.8678 18.5407C31.1073 18.4331 31.2924 18.2931 31.423 18.1208C31.5537 17.927 31.619 17.6901 31.619 17.4101C31.619 17.0009 31.4339 16.6779 31.0638 16.441C30.6936 16.2041 30.1928 15.9995 29.5614 15.8272C28.93 15.655 28.2224 15.4934 27.4386 15.3427C26.6547 15.1919 25.8383 15.0197 24.9891 14.8258C24.14 14.6105 23.3235 14.3413 22.5397 14.0183C21.7558 13.6952 21.0482 13.286 20.4168 12.7907C19.7854 12.2739 19.2846 11.6386 18.9145 10.8848C18.5443 10.1096 18.3593 9.18352 18.3593 8.10674C18.3593 6.81461 18.6314 5.71629 19.1757 4.8118C19.7201 3.9073 20.4603 3.17509 21.3966 2.61517C22.3546 2.05524 23.4323 1.64607 24.6299 1.38764C25.8491 1.12921 27.1229 1 28.451 1C29.8009 1 31.0638 1.13998 32.2395 1.41994C33.437 1.67837 34.493 2.08755 35.4075 2.64747C36.3219 3.2074 37.0404 3.91807 37.563 4.7795C38.0855 5.64092 38.3577 6.66386 38.3795 7.84831V8.23596H31.619V8.10674C31.619 7.7191 31.521 7.353 31.325 7.00843C31.1291 6.66386 30.8134 6.3839 30.3779 6.16854C29.9642 5.95318 29.409 5.84551 28.7123 5.84551C28.0591 5.84551 27.5039 5.91011 27.0467 6.03933C26.6112 6.16854 26.2846 6.35159 26.0669 6.58848C25.8491 6.80384 25.7403 7.04073 25.7403 7.29916C25.7403 7.70833 25.9253 8.04213 26.2955 8.30056C26.6656 8.55899 27.1664 8.77434 27.7978 8.94663C28.4292 9.11891 29.1369 9.28043 29.9207 9.43118C30.7045 9.58193 31.521 9.75421 32.3701 9.94803C33.2193 10.1203 34.0358 10.3572 34.8196 10.6587C35.6034 10.9602 36.311 11.3586 36.9425 11.8539C37.5739 12.3277 38.0746 12.9199 38.4448 13.6306C38.8149 14.3413 39 15.2135 39 16.2472C39 18.0777 38.5645 19.5637 37.6936 20.7051C36.8445 21.8464 35.6687 22.6863 34.1664 23.2247C32.6858 23.7416 30.9984 24 29.1042 24Z" fill="#171718"/>
<path fill-rule="evenodd" clip-rule="evenodd" d="M38.3445 7.23596C38.364 7.43504 38.3756 7.63916 38.3795 7.84831V8.23596H31.619V8.10674C31.619 7.7191 31.521 7.353 31.325 7.00843C31.1291 6.66386 30.8134 6.3839 30.3779 6.16854C29.9642 5.95318 29.409 5.84551 28.7123 5.84551C28.0591 5.84551 27.5039 5.91011 27.0467 6.03933C26.6112 6.16854 26.2846 6.35159 26.0669 6.58848C25.8491 6.80384 25.7403 7.04073 25.7403 7.29916C25.7403 7.70833 25.9253 8.04213 26.2955 8.30056C26.6656 8.55899 27.1664 8.77434 27.7978 8.94663C28.4292 9.11891 29.1369 9.28043 29.9207 9.43118C30.7045 9.58193 31.521 9.75421 32.3701 9.94803C33.2193 10.1203 34.0358 10.3572 34.8196 10.6587C35.6034 10.9602 36.311 11.3586 36.9425 11.8539C37.5739 12.3277 38.0746 12.9199 38.4448 13.6306C38.8149 14.3413 39 15.2135 39 16.2472C39 18.0777 38.5645 19.5637 37.6936 20.7051C36.8445 21.8464 35.6687 22.6863 34.1664 23.2247C32.6858 23.7416 30.9984 24 29.1042 24C27.5583 24 26.1104 23.8816 24.7605 23.6447C23.4323 23.4293 22.2566 23.0524 21.2333 22.514C20.2317 21.9541 19.437 21.1896 18.8491 20.2205C18.283 19.2299 18 17.9916 18 16.5056V16.3441C18 16.258 18.0109 16.1718 18.0327 16.0857H24.8585C24.8367 16.1718 24.8258 16.258 24.8258 16.3441V16.5379C24.8258 16.7106 24.8367 16.8725 24.8585 17.0236C24.9182 17.438 25.0597 17.7714 25.283 18.0239C25.5879 18.3684 26.0124 18.6053 26.5568 18.7346C27.1229 18.8422 27.7543 18.8961 28.451 18.8961H29.2675C29.5723 18.8745 29.8554 18.8422 30.1166 18.7992C30.3997 18.7346 30.6501 18.6484 30.8678 18.5407C31.1073 18.4331 31.2924 18.2931 31.423 18.1208C31.5537 17.927 31.619 17.6901 31.619 17.4101C31.619 17.0009 31.4339 16.6779 31.0638 16.441C30.6936 16.2041 30.1928 15.9995 29.5614 15.8272C28.93 15.655 28.2224 15.4934 27.4386 15.3427C26.6547 15.1919 25.8383 15.0197 24.9891 14.8258C24.14 14.6105 23.3235 14.3413 22.5397 14.0183C21.7558 13.6952 21.0482 13.286 20.4168 12.7907C19.7854 12.2739 19.2846 11.6386 18.9145 10.8848C18.5443 10.1096 18.3593 9.18352 18.3593 8.10674C18.3593 6.81461 18.6314 5.71629 19.1757 4.8118C19.7201 3.9073 20.4603 3.17509 21.3966 2.61517C22.3546 2.05524 23.4323 1.64607 24.6299 1.38764C25.8491 1.12921 27.1229 1 28.451 1C29.8009 1 31.0638 1.13998 32.2395 1.41994C33.437 1.67837 34.493 2.08755 35.4075 2.64747C36.3219 3.2074 37.0404 3.91807 37.563 4.7795C37.9933 5.4888 38.2538 6.30763 38.3445 7.23596ZM30.6033 17.5407C30.6042 17.5381 30.6051 17.5352 30.606 17.5319C30.6117 17.5111 30.619 17.4725 30.619 17.4101C30.619 17.3836 30.616 17.3695 30.6148 17.3644C30.6137 17.3601 30.6129 17.3588 30.6125 17.3582C30.612 17.3573 30.6083 17.3507 30.5966 17.3389C30.5844 17.3267 30.5623 17.3073 30.5247 17.2833C30.2705 17.1206 29.8749 16.9493 29.2982 16.792C28.696 16.6277 28.0137 16.4716 27.2497 16.3247C26.8091 16.24 26.3588 16.1486 25.8988 16.0507L25.828 16.3307C25.8258 16.3393 25.8258 16.3432 25.8258 16.3441V16.5372C25.8258 17.0374 25.944 17.2617 26.032 17.3613C26.1705 17.5178 26.3917 17.6641 26.7669 17.7565C27.2547 17.8476 27.8146 17.8961 28.451 17.8961H29.2311C29.4834 17.8774 29.714 17.8509 29.923 17.8175C30.1303 17.7683 30.2951 17.7084 30.4245 17.6444L30.441 17.6362L30.4578 17.6287C30.5359 17.5935 30.5796 17.562 30.6033 17.5407ZM22.5158 15.0857H17.254L17.0631 15.8406C17.0218 16.0043 17 16.1728 17 16.3441V16.5054C17 18.1141 17.3062 19.5359 17.9809 20.7167L17.9874 20.728L17.9942 20.7392C18.6728 21.858 19.5948 22.7437 20.7453 23.3869L20.7564 23.3931L20.7677 23.399C21.8991 23.9943 23.1787 24.4006 24.5939 24.6307C26.0058 24.8781 27.5099 25 29.1042 25C31.0881 25 32.8901 24.7295 34.496 24.1688L34.5038 24.1661C36.1662 23.5703 37.5119 22.6226 38.4923 21.3068C39.5264 19.949 40 18.2336 40 16.2472C40 15.0979 39.7945 14.0573 39.3317 13.1687C38.8952 12.3307 38.3002 11.6245 37.5514 11.0606C36.8402 10.5041 36.0476 10.0596 35.1786 9.72537C34.6937 9.53884 34.1978 9.37575 33.691 9.23596H39.3795V7.83912L39.3793 7.82993C39.3549 6.50015 39.0471 5.29799 38.418 4.26085C37.8074 3.25437 36.9711 2.43234 35.9297 1.79464C34.9093 1.1699 33.7488 0.723679 32.4608 0.444691C31.204 0.146347 29.8661 0 28.451 0C27.0577 0 25.7143 0.135587 24.4225 0.409373L24.4189 0.410144C23.1288 0.688561 21.9502 1.13332 20.892 1.75182L20.8833 1.75694C19.8111 2.39821 18.9508 3.24621 18.3189 4.29617C17.662 5.38782 17.3593 6.67355 17.3593 8.10674C17.3593 9.29586 17.5635 10.3762 18.012 11.3157L18.0169 11.3256C18.4483 12.2042 19.0378 12.9542 19.7834 13.5645L19.7914 13.5711L19.7996 13.5775C20.507 14.1325 21.2949 14.5869 22.1586 14.9428C22.277 14.9916 22.3961 15.0392 22.5158 15.0857ZM30.619 8.54923V8.10674C30.619 7.89647 30.5681 7.70023 30.4558 7.50278C30.3788 7.36743 30.2319 7.21193 29.9346 7.06491L29.9253 7.06033L29.9162 7.05555C29.6982 6.94207 29.3213 6.84551 28.7123 6.84551C28.1229 6.84551 27.6669 6.90408 27.3249 6.99987C26.9994 7.09729 26.8578 7.20566 26.8031 7.26518L26.787 7.28271L26.7701 7.29946C26.7572 7.31217 26.7481 7.32246 26.7418 7.3302C26.7446 7.35482 26.7504 7.36565 26.7537 7.3715C26.76 7.38294 26.7851 7.42281 26.868 7.48063C27.112 7.65105 27.4949 7.82743 28.0611 7.9819C28.6633 8.14622 29.3455 8.30224 30.1095 8.44918C30.2779 8.48156 30.4477 8.51491 30.619 8.54923Z" fill="#355DEB"/>
</svg>
