<svg width="26" height="26" viewBox="0 0 26 26" fill="none" xmlns="http://www.w3.org/2000/svg">
<path fill-rule="evenodd" clip-rule="evenodd" d="M13 26C20.1797 26 26 20.1797 26 13C26 5.8203 20.1797 0 13 0C5.8203 0 0 5.8203 0 13C0 20.1797 5.8203 26 13 26ZM19.9905 7.21514C19.8121 9.0795 18.3692 18.541 18.0612 19.4904C17.7984 20.3015 17.5203 21 16.9924 21C16.4646 21 15.888 20.815 15.3194 20.4068C14.7508 19.9987 10.976 17.4549 10.451 17.1228C9.99165 16.8317 9.50532 16.1047 10.1904 15.4033C10.5412 15.044 12.3281 13.2952 13.7176 11.9353C14.563 11.1079 15.2613 10.4245 15.3995 10.2856C15.765 9.9177 15.4082 9.4474 14.9612 9.81457C14.5135 10.1817 8.27931 14.3727 7.73911 14.7099C7.22948 15.028 6.32017 15.2204 5.52151 14.9988C4.69228 14.7691 3.2879 14.3413 2.73022 14.1416C2.19439 13.9492 2 13.7642 2 13.435C2 12.9669 2.65669 12.6437 3.35124 12.3474C4.08364 12.0344 16.7602 6.62709 17.7518 6.26797C18.4747 6.00613 19.0979 5.90446 19.5187 6.10779C19.8667 6.27528 20.0444 6.6505 19.9905 7.21514Z" fill="#355DEB"/>
</svg>
